<?xml version='1.0' encoding='iso-8859-1'?>
<svg version="1.1" xmlns="http://www.w3.org/2000/svg" viewBox="0 0 32 32" xmlns:xlink="http://www.w3.org/1999/xlink" enable-background="new 0 0 32 32">
<defs>
		<style>
		  .color {
			fill: #cdcdcd;
		  }
		</style>
  </defs>
  <g>
    <ellipse class="color" cx="11.046" cy="29" rx="3" ry="3"/>
    <ellipse class="color" cx="23.046" cy="29" rx="3" ry="3"/>
    <path class="color" d="m30.046,6h-22.5c-3.3,0-2.7-3.1-3.5-4.4-0.7-1-1.7-1.6-3-1.6-0.6,0-1,0.5-1,1 0,0.4 0.2,0.7 0.5,0.9 1.6,0.8 2.1,4 2.3,5.1l2.8,13.4c0.3,1.5 1.7,2.6 3.3,2.6h17.1c1.7,0 3.2-1.2 3.6-2.9l2.3-11.7c0-0.1 0-0.3 0-0.4 0.1-1-0.7-2-1.9-2zm-.8,5.7c-1.1,5.5-8.5,9.3-14.1,9.3h-1.9c-3.2,0-5.9-2.2-6.5-5.3l-1-4.6c-0.3-1.6 0.9-3.1 2.5-3.1h17.9c0.7,0 1.4,0.3 2,0.7 0.4,0.3 0.6,0.6 0.8,1 0.4,0.6 0.5,1.3 0.3,2z"/>
  </g>
</svg>
