<svg version="1.0" xmlns="http://www.w3.org/2000/svg"
        width="32px" height="32px" viewBox="0 0 32 32"
        preserveAspectRatio="xMidYMid meet">

<g transform="translate(0.000000,24.000000) scale(0.100000,-0.100000)"
   fill="#000000" stroke="none">
    <path class="color" d="M44 129 c-10 -17 13 -36 27 -22 12 12 4 33 -11 33 -5 0 -12 -5 -16
-11z"/>
    <path class="color" d="M104 129 c-10 -17 13 -36 27 -22 12 12 4 33 -11 33 -5 0 -12 -5 -16
-11z"/>
    <path class="color" d="M164 129 c-10 -17 13 -36 27 -22 12 12 4 33 -11 33 -5 0 -12 -5 -16
-11z"/>
</g>
</svg>